<?xml version="1.0" encoding="UTF-8" standalone="no"?>
<!DOCTYPE svg PUBLIC "-//W3C//DTD SVG 20010904//EN"
              "http://www.w3.org/TR/2001/REC-SVG-20010904/DTD/svg10.dtd">

<svg xmlns="http://www.w3.org/2000/svg"
     width="83.0908mm" height="77.0045mm"
     viewBox="0 0 314 291">
  <path id="Selection"
        fill="#FEDD40" stroke="black" stroke-width="0.1"
        d="M 161.00,25.00
           C 170.47,31.78 180.09,44.81 187.75,54.00
             208.30,78.66 232.95,110.36 233.00,144.00
             233.02,154.11 233.57,156.91 230.96,167.00
             229.32,173.33 225.36,176.38 228.97,183.00
             228.97,183.00 244.28,205.00 244.28,205.00
             244.28,205.00 279.68,257.00 279.68,257.00
             285.40,266.08 296.41,280.40 297.00,291.00
             297.00,291.00 289.55,280.00 289.55,280.00
             289.55,280.00 277.58,262.00 277.58,262.00
             277.58,262.00 245.12,216.00 245.12,216.00
             245.12,216.00 225.00,190.00 225.00,190.00
             218.98,193.52 217.60,197.24 212.91,201.91
             209.06,205.74 199.82,212.11 195.00,214.99
             185.62,220.58 172.61,228.16 162.00,230.33
             146.43,233.53 136.47,229.70 122.00,224.95
             118.09,223.66 116.06,224.19 112.00,222.35
             112.00,222.35 93.00,211.45 93.00,211.45
             93.00,211.45 77.00,203.00 77.00,203.00
             79.63,194.12 89.47,191.19 97.00,187.68
             97.00,187.68 109.00,181.86 109.00,181.86
             119.54,177.17 129.86,172.27 141.00,169.04
             141.00,169.04 150.00,167.07 150.00,167.07
             150.00,167.07 157.00,164.63 157.00,164.63
             159.78,163.84 172.19,162.23 175.00,162.37
             178.93,162.58 195.22,165.95 199.00,167.24
             205.61,169.50 204.29,170.24 213.00,172.00
             213.00,172.00 196.09,155.00 196.09,155.00
             189.55,147.98 183.45,140.76 176.00,134.61
             172.34,131.60 165.28,125.31 161.00,124.03
             158.52,123.33 152.13,124.00 149.00,124.03
             134.79,124.02 118.70,126.09 105.00,121.96
             98.73,120.06 93.54,115.95 88.00,112.60
             81.50,108.68 71.37,102.95 66.09,97.83
             60.74,92.63 45.09,69.37 40.85,62.00
             37.56,56.28 30.71,47.14 29.00,42.00
             29.00,42.00 47.00,42.00 47.00,42.00
             47.00,42.00 57.12,42.62 57.12,42.62
             57.12,42.62 66.94,43.69 66.94,43.69
             66.94,43.69 79.00,45.70 79.00,45.70
             101.04,48.96 112.52,51.25 132.00,63.19
             137.87,66.79 141.95,69.01 146.96,74.04
             152.76,79.86 159.11,90.97 161.10,99.00
             162.18,103.34 162.67,111.74 164.51,115.00
             166.81,119.07 173.53,125.53 177.00,129.00
             177.00,129.00 203.00,154.00 203.00,154.00
             203.00,154.00 184.26,123.00 184.26,123.00
             175.89,105.68 171.33,86.67 167.34,68.00
             163.30,49.08 161.00,45.10 161.00,25.00 Z
           M 156.00,107.00
           C 154.47,101.32 148.42,83.27 145.36,79.00
             141.34,73.38 133.01,67.63 127.00,64.15
             114.59,56.97 101.31,51.37 87.00,49.30
             87.00,49.30 79.91,48.36 79.91,48.36
             71.22,46.53 51.56,44.25 43.88,46.75
             62.62,54.81 84.63,61.17 102.00,72.05
             102.00,72.05 135.00,94.28 135.00,94.28
             140.54,98.15 149.87,105.05 156.00,107.00 Z
           M 204.00,154.00
           C 204.00,154.00 203.00,154.00 203.00,154.00
             203.00,154.00 204.00,155.00 204.00,155.00
             204.00,155.00 204.00,154.00 204.00,154.00 Z
           M 205.00,155.00
           C 205.00,155.00 204.00,155.00 204.00,155.00
             204.00,155.00 205.00,156.00 205.00,156.00
             205.00,156.00 205.00,155.00 205.00,155.00 Z
           M 214.00,172.00
           C 214.00,172.00 213.00,172.00 213.00,172.00
             213.00,172.00 214.00,173.00 214.00,173.00
             214.00,173.00 214.00,172.00 214.00,172.00 Z" />
</svg>
